<svg width="18" height="18" viewBox="0 0 18 18" fill="none" xmlns="http://www.w3.org/2000/svg">
<path d="M7.07712 3.07317H10.5893C10.5893 2.1033 9.80311 1.31707 8.83322 1.31707C7.86333 1.31707 7.07712 2.1033 7.07712 3.07317ZM5.76005 3.07317C5.76005 1.3759 7.13595 0 8.83322 0C10.5305 0 11.9064 1.3759 11.9064 3.07317H16.9552C17.3189 3.07317 17.6137 3.36801 17.6137 3.73171C17.6137 4.0954 17.3189 4.39024 16.9552 4.39024H15.7969L14.7679 15.0245C14.6045 16.7123 13.1861 18 11.4905 18H6.17597C4.48033 18 3.06194 16.7123 2.8986 15.0245L1.86949 4.39024H0.711271C0.347574 4.39024 0.0527344 4.0954 0.0527344 3.73171C0.0527344 3.36801 0.347574 3.07317 0.711271 3.07317H5.76005ZM7.51615 7.2439C7.51615 6.88021 7.2213 6.58537 6.85761 6.58537C6.49392 6.58537 6.19908 6.88021 6.19908 7.2439V13.8293C6.19908 14.193 6.49392 14.4878 6.85761 14.4878C7.2213 14.4878 7.51615 14.193 7.51615 13.8293V7.2439ZM10.8088 6.58537C11.1725 6.58537 11.4674 6.88021 11.4674 7.2439V13.8293C11.4674 14.193 11.1725 14.4878 10.8088 14.4878C10.4451 14.4878 10.1503 14.193 10.1503 13.8293V7.2439C10.1503 6.88021 10.4451 6.58537 10.8088 6.58537ZM4.20956 14.8976C4.30756 15.9102 5.15859 16.6829 6.17597 16.6829H11.4905C12.5079 16.6829 13.3589 15.9102 13.4569 14.8976L14.4737 4.39024H3.19271L4.20956 14.8976Z" fill="#333333"/>
</svg>
