<?xml version="1.0" encoding="UTF-8"?>
<svg id="Layer_1" xmlns="http://www.w3.org/2000/svg" viewBox="0 0 19 16.75">
  <defs>
    <style>
      .cls-1 {
        fill: none;
        stroke: #333;
        stroke-miterlimit: 10;
      }
    </style>
  </defs>
  <path class="cls-1" d="M11.52,16.22c.91-.18,1.51-1.07,1.33-1.99l-.08-.4c-.19-.94-.53-1.83-1.01-2.64h5.06c.93,0,1.69-.76,1.69-1.69,0-.65-.37-1.22-.91-1.5.38-.31.63-.78.63-1.31,0-.82-.59-1.51-1.37-1.66.15-.26.24-.56.24-.88,0-.75-.49-1.39-1.16-1.6.02-.12.04-.24.04-.37,0-.93-.76-1.69-1.69-1.69h-3.43c-.67,0-1.32.2-1.87.57l-1.35.9c-.94.63-1.5,1.68-1.5,2.81v3.91c0,1.03.47,1.99,1.27,2.64l.26.21c.93.75,1.57,1.79,1.8,2.96l.08.4c.18.91,1.07,1.51,1.99,1.33ZM1.62,12.88h2.25c.62,0,1.12-.5,1.12-1.12V3.88c0-.62-.5-1.12-1.12-1.12H1.62c-.62,0-1.12.5-1.12,1.12v7.88c0,.62.5,1.12,1.12,1.12Z"/>
</svg>