<svg width="18" height="18" viewBox="0 0 18 18" fill="none" xmlns="http://www.w3.org/2000/svg">
<path d="M4.5 9C4.5 6.51465 6.51465 4.5 9 4.5C11.4853 4.5 13.5 6.51465 13.5 9C13.5 11.4853 11.4853 13.5 9 13.5C6.51465 13.5 4.5 11.4853 4.5 9ZM2.34333 7.875H1.125C0.503685 7.875 0 8.3787 0 9C0 9.6213 0.503685 10.125 1.125 10.125H2.34333C2.81754 12.9516 5.04843 15.1824 7.875 15.6567V16.875C7.875 17.4963 8.3787 18 9 18C9.6213 18 10.125 17.4963 10.125 16.875V15.6567C12.9516 15.1824 15.1824 12.9516 15.6567 10.125H16.875C17.4963 10.125 18 9.6213 18 9C18 8.3787 17.4963 7.875 16.875 7.875H15.6567C15.1824 5.04843 12.9516 2.81754 10.125 2.34333V1.125C10.125 0.503685 9.6213 0 9 0C8.3787 0 7.875 0.503685 7.875 1.125V2.34333C5.04843 2.81754 2.81754 5.04843 2.34333 7.875ZM11.25 9C11.25 10.2426 10.2426 11.25 9 11.25C7.7574 11.25 6.75 10.2426 6.75 9C6.75 7.7574 7.7574 6.75 9 6.75C10.2426 6.75 11.25 7.7574 11.25 9Z" fill="#333333"/>
</svg>
